<?xml version="1.0" encoding="utf-8"?>
<!-- Generator: Adobe Illustrator 16.0.0, SVG Export Plug-In . SVG Version: 6.00 Build 0)  -->
<!DOCTYPE svg PUBLIC "-//W3C//DTD SVG 1.1//EN" "http://www.w3.org/Graphics/SVG/1.1/DTD/svg11.dtd">
<svg version="1.1" id="Layer_1" xmlns="http://www.w3.org/2000/svg" xmlns:xlink="http://www.w3.org/1999/xlink" x="0px" y="0px"
	 width="800px" height="400px" viewBox="0 0 800 400" enable-background="new 0 0 800 400" xml:space="preserve">
<rect width="800" height="400"/>
<g>
	<path fill="#8F8F8F" d="M636.123,147.64c-41.402,0-74.971,33.563-74.971,74.971c0,41.404,33.567,74.971,74.971,74.971
		c41.408,0,74.973-33.566,74.973-74.971C711.096,181.205,677.531,147.64,636.123,147.64z M636.123,267.594
		c-24.842,0-44.98-20.141-44.98-44.982c0-24.843,20.14-44.982,44.98-44.982c24.846,0,44.984,20.141,44.984,44.982
		C681.107,247.455,660.969,267.594,636.123,267.594z"/>
	<path fill="#8F8F8F" d="M478.686,147.64c-41.403,0-74.973,33.563-74.973,74.971c0,41.404,33.566,74.971,74.973,74.971
		c41.407,0,74.972-33.566,74.972-74.971C553.656,181.205,520.092,147.64,478.686,147.64z M478.686,267.594
		c-24.844,0-44.981-20.141-44.981-44.982c0-24.843,20.141-44.982,44.981-44.982c24.842,0,44.98,20.141,44.98,44.982
		C523.666,247.455,503.527,267.594,478.686,267.594z"/>
	<path fill="#875A7B" d="M163.877,147.64c-41.405,0-74.973,33.563-74.973,74.971c0,41.404,33.567,74.971,74.973,74.971
		c41.406,0,74.973-33.566,74.973-74.971C238.85,181.205,205.283,147.64,163.877,147.64z M163.877,267.594
		c-24.844,0-44.983-20.141-44.983-44.982c0-24.843,20.141-44.982,44.983-44.982s44.981,20.141,44.981,44.982
		C208.859,247.455,188.719,267.594,163.877,267.594z"/>
	<path fill="#8F8F8F" d="M381.296,102.417c-8.282,0-14.994,6.713-14.994,14.994v45.003c-12.531-9.413-28.104-14.993-44.984-14.993
		c-41.402,0-74.972,33.566-74.972,74.974c0,41.403,33.568,74.973,74.972,74.973c41.334,0,74.85-33.451,74.968-74.756h0.007v-105.2
		C396.29,109.13,389.576,102.417,381.296,102.417z M321.317,267.377c-24.843,0-44.981-20.141-44.981-44.982
		c0-24.844,20.14-44.983,44.981-44.983c24.843,0,44.983,20.142,44.983,44.983C366.3,247.236,346.16,267.377,321.317,267.377z"/>
</g>
</svg>
